<?xml version="1.0" encoding="utf-8"?>
<!-- Generator: Adobe Illustrator 25.0.0, SVG Export Plug-In . SVG Version: 6.00 Build 0)  -->
<svg version="1.1" id="Layer_1" xmlns="http://www.w3.org/2000/svg" xmlns:xlink="http://www.w3.org/1999/xlink" x="0px" y="0px"
	 viewBox="0 0 1000 250.5" style="enable-background:new 0 0 1000 250.5;" xml:space="preserve">
<style type="text/css">
	.st0{fill:url(#SVGID_1_);}
	.st1{fill:#221B43;}
	.st2{fill:url(#SVGID_2_);}
</style>
<linearGradient id="SVGID_1_" gradientUnits="userSpaceOnUse" x1="130.7912" y1="228.2323" x2="269.165" y2="-6.4778">
	<stop  offset="0" style="stop-color:#0BF4A8"/>
	<stop  offset="0.5205" style="stop-color:#7F59FF"/>
	<stop  offset="1" style="stop-color:#FF00FF"/>
</linearGradient>
<path class="st0" d="M196.86,156.48l-48.21,79.06h-48.3v-1.14l78.71-129.11l17.74,28.8C201.04,140.96,201.05,149.61,196.86,156.48z
	 M288.6,6h-49l-15.33,25.15c-4.19,6.88-4.17,15.53,0.05,22.39l17.74,28.81L288.6,6z"/>
<path class="st1" d="M274.87,209.22c-9.27,16.48-26.08,26.33-44.99,26.33h-81.22l25.52-41.84h65.44c3.34,0,5.4-3.65,3.67-6.52
	L161.15,52.49c-2.47-4.07-6.28-4.68-8.32-4.68c-2.06,0-5.85,0.61-8.33,4.68l-60.59,99.39h48.36l-21.43,35.15
	c-2.53,4.14-7.04,6.67-11.91,6.67H9.41l99.38-163c4.73-7.73,11.2-13.93,18.76-18.17c7.56-4.25,16.22-6.57,25.28-6.57
	c18.14,0,34.6,9.25,44.05,24.73l77.05,126.41C283.77,173.25,284.12,192.72,274.87,209.22z"/>
<g>
	<g>
		<path class="st1" d="M513.65,40.66h33.28v159.49h-33.28V40.66z"/>
		<path class="st1" d="M561.29,40.66h33.28v159.49h-33.28V40.66z"/>
		<path class="st1" d="M606.83,138.61c0-37.34,28.41-65.03,66.54-65.03c37.94,0,66.54,27.73,66.54,65.03
			c0,37.12-28.6,65.03-66.54,65.03C635.24,203.64,606.83,175.72,606.83,138.61z M706.18,138.61c0-19.94-13.62-33.74-32.8-33.74
			s-32.8,13.8-32.8,33.74c0,19.94,13.62,33.74,32.8,33.74S706.18,158.55,706.18,138.61z"/>
		<path class="st1" d="M865.55,77.06l-53.65,121.46c-14.76,33.36-27.73,46-55.35,46h-13.72V214.6h11.52
			c16.04,0,20.21-4.27,27.77-22.88l0.47-1L730.43,77.06h36.22l32.84,75.73l30.66-75.73H865.55z"/>
		<path class="st1" d="M501.58,200.16H466.9l-45.16-115.2l-45.16,115.2H341.9l56.2-143.36c3.83-9.76,13.26-16.17,23.74-16.13h0
			c10.41,0.04,19.75,6.43,23.55,16.13L501.58,200.16z"/>
	</g>
</g>
<linearGradient id="SVGID_2_" gradientUnits="userSpaceOnUse" x1="882.793" y1="187.3655" x2="977.7314" y2="35.6956">
	<stop  offset="0" style="stop-color:#0BF4A8"/>
	<stop  offset="0.5205" style="stop-color:#7F59FF"/>
	<stop  offset="1" style="stop-color:#FF00FF"/>
</linearGradient>
<path class="st2" d="M936.13,87.36c-3.15-5.08-3.15-11.51,0-16.59l18.68-30.1h38.75l-43.2,69.62L936.13,87.36z M899.05,130.53
	l-43.2,69.62h38.75l18.68-30.1c3.15-5.08,3.15-11.51,0-16.59L899.05,130.53z"/>
<polygon class="st1" points="993.56,200.16 894.6,40.66 855.84,40.66 954.81,200.16 "/>
</svg>
